<?xml version="1.0" encoding="UTF-8" standalone="no"?><!DOCTYPE svg PUBLIC "-//W3C//DTD SVG 1.1//EN" "http://www.w3.org/Graphics/SVG/1.1/DTD/svg11.dtd"><svg width="100%" height="100%" viewBox="0 0 3334 3334" version="1.1" xmlns="http://www.w3.org/2000/svg" xmlns:xlink="http://www.w3.org/1999/xlink" xml:space="preserve" xmlns:serif="http://www.serif.com/" style="fill-rule:evenodd;clip-rule:evenodd;stroke-linejoin:round;stroke-miterlimit:2;"><g><g><path d="M3148.223,1346.152l-1161.042,0l0,-1158.737c0,-105.736 -79.564,-187.415 -185.547,-187.415l-256.66,0c-105.983,0 -198.822,81.68 -198.822,187.415l0,1158.737l-1147.773,0c-105.729,0 -198.379,81.868 -198.379,187.852l0,256.66c0,105.983 92.65,196.517 198.379,196.517l1147.773,0l0,1150.104c0,105.703 92.839,196.048 198.822,196.048l256.66,0c105.983,0 185.547,-90.345 185.547,-196.048l0,-1150.104l1161.042,0c105.736,0 185.111,-90.534 185.111,-196.517l0,-256.66c0,-105.983 -79.375,-187.852 -185.111,-187.852Zm56.908,444.512c0,35.273 -21.849,68.314 -56.901,68.314l-1218.516,0c-35.43,0 -70.736,24.375 -70.736,59.766l0,1218.542c0,35.618 -21.471,67.845 -57.344,67.845l-256.66,0c-35.306,0 -70.612,-32.819 -70.612,-67.845l0,-1218.542c0,-35.391 -22.038,-59.766 -57.467,-59.766l-1218.516,0c-35.618,0 -70.176,-32.441 -70.176,-68.314l0,-256.66c0,-35.267 35.117,-59.642 70.176,-59.642l1218.516,0c35.43,0 57.467,-33.034 57.467,-68.438l0,-1218.509c0,-35.625 34.746,-59.212 70.612,-59.212l256.66,0c35.306,0 57.344,24.18 57.344,59.212l0,1218.509c0,35.404 35.306,68.438 70.736,68.438l1218.509,0c35.618,0 56.901,23.77 56.901,59.642l0,256.66l0.007,0Z" style="fill:#fff;fill-rule:nonzero;"/></g></g></svg>