<?xml version="1.0" encoding="UTF-8" standalone="no"?><!DOCTYPE svg PUBLIC "-//W3C//DTD SVG 1.1//EN" "http://www.w3.org/Graphics/SVG/1.1/DTD/svg11.dtd"><svg width="100%" height="100%" viewBox="0 0 3334 3334" version="1.1" xmlns="http://www.w3.org/2000/svg" xmlns:xlink="http://www.w3.org/1999/xlink" xml:space="preserve" xmlns:serif="http://www.serif.com/" style="fill-rule:evenodd;clip-rule:evenodd;stroke-linejoin:round;stroke-miterlimit:2;"><g><path d="M2531.278,1620.778l-1222.222,-833.333c-17.056,-11.556 -39.056,-12.833 -57.278,-3.222c-18.167,9.611 -29.556,28.5 -29.556,49.111l0,1666.667c0,20.611 11.389,39.5 29.611,49.111c8.111,4.333 17.056,6.444 25.944,6.444c10.944,0 21.889,-3.278 31.278,-9.667l1222.222,-833.333c15.167,-10.333 24.278,-27.5 24.278,-45.889c0,-18.389 -9.111,-35.556 -24.278,-45.889Zm-1197.944,774.056l0,-1456.333l1068.056,728.167l-1068.056,728.167Z" style="fill:#fff;fill-rule:nonzero;"/></g></svg>