<?xml version="1.0" encoding="UTF-8" standalone="no"?><!DOCTYPE svg PUBLIC "-//W3C//DTD SVG 1.1//EN" "http://www.w3.org/Graphics/SVG/1.1/DTD/svg11.dtd"><svg width="100%" height="100%" viewBox="0 0 3334 3334" version="1.1" xmlns="http://www.w3.org/2000/svg" xmlns:xlink="http://www.w3.org/1999/xlink" xml:space="preserve" xmlns:serif="http://www.serif.com/" style="fill-rule:evenodd;clip-rule:evenodd;stroke-linejoin:round;stroke-miterlimit:2;"><g><ellipse cx="1666.667" cy="1651.57" rx="1646.538" ry="1651.57"/><path d="M1666.667,0c-919,0 -1666.667,747.667 -1666.667,1666.667c0,919 747.667,1666.667 1666.667,1666.667c919,0 1666.667,-747.667 1666.667,-1666.667c0,-919 -747.667,-1666.667 -1666.667,-1666.667Zm0,3222.222c-857.722,0 -1555.556,-697.833 -1555.556,-1555.556c0,-857.722 697.833,-1555.556 1555.556,-1555.556c857.722,0 1555.556,697.833 1555.556,1555.556c0,857.722 -697.833,1555.556 -1555.556,1555.556Z" style="fill:#fff;fill-rule:nonzero;"/><path d="M1833.333,2555.556l444.444,0l0,-1777.778l-444.444,0l0,1777.778Zm111.111,-1666.667l222.222,-0l0,1555.556l-222.222,0l0,-1555.556Z" style="fill:#fff;fill-rule:nonzero;"/><path d="M1055.556,2555.556l444.444,0l0,-1777.778l-444.444,0l0,1777.778Zm111.111,-1666.667l222.222,-0l0,1555.556l-222.222,0l0,-1555.556Z" style="fill:#fff;fill-rule:nonzero;"/></g></svg>