<?xml version="1.0" encoding="UTF-8" standalone="no"?><!DOCTYPE svg PUBLIC "-//W3C//DTD SVG 1.1//EN" "http://www.w3.org/Graphics/SVG/1.1/DTD/svg11.dtd"><svg width="100%" height="100%" viewBox="0 0 2688 2688" version="1.1" xmlns="http://www.w3.org/2000/svg" xmlns:xlink="http://www.w3.org/1999/xlink" xml:space="preserve" xmlns:serif="http://www.serif.com/" style="fill-rule:evenodd;clip-rule:evenodd;stroke-linejoin:round;stroke-miterlimit:2;"><g id="SVGRepo_iconCarrier"><rect x="213.985" y="1071.352" width="150.635" height="1011.379" style="fill:#fff;stroke:#fff;stroke-width:12.92px;"/><rect x="1908.633" y="1324.197" width="150.635" height="758.534" style="fill:#fff;stroke:#fff;stroke-width:12.92px;"/><rect x="628.232" y="721.607" width="150.635" height="1613.969" style="fill:#fff;stroke:#fff;stroke-width:12.92px;"/><rect x="1494.385" y="1071.352" width="150.635" height="1264.224" style="fill:#fff;stroke:#fff;stroke-width:12.92px;"/><rect x="2322.88" y="1071.352" width="150.635" height="1264.224" style="fill:#fff;stroke:#fff;stroke-width:12.92px;"/><rect x="1042.479" y="368.37" width="150.635" height="2283.262" style="fill:#fff;stroke:#fff;stroke-width:12.92px;"/><path d="M1974.903,81.413c0.837,0.15 4.708,0.845 10.629,-0.058c2.909,7.151 1.53,7.34 3.416,14.885c11.005,44.007 10.434,44.103 11.594,47.866c1.829,8.303 2.989,7.794 5.839,18.859c1.696,10.85 2.171,10.541 5.647,20.818c0.713,2.107 1.755,5.189 6.046,27.174c0.746,1.398 1.493,2.797 2.239,4.195c2.657,9.555 3.677,13.414 3.987,14.584c2.113,3.947 2.142,3.901 2.282,4.263c0.409,1.059 -0.435,1.061 -0.059,2.033c0.752,3.856 0.316,3.928 1.662,6.281c7.718,13.49 7.016,23.588 14.776,37.235l-0.018,2.243c5.679,21.559 13.558,28.716 19.79,52.462c2.016,3.092 1.453,3.28 3.415,6.464c8.22,12.176 18.343,39.548 24.269,45.347c1.992,1.925 1.666,2.048 3.635,3.944c0.075,2.818 0.017,2.674 0.783,5.25c1.029,0.495 2.059,0.99 3.088,1.486l1.555,2.234c3.858,8.463 28.532,45.101 38.776,50.444c0.833,0.434 -1.543,2.129 6.227,10.115c4.562,4.689 3.418,5.887 10.968,9.842c1.233,0.646 0.131,2.034 13.334,11.306c3.103,2.179 14.583,13.245 30.895,26.783c4.253,0.852 3.939,1.331 8.05,2.422c0.606,1.121 -0.598,4.18 7.874,6.409c12.235,9.227 11.985,10.086 19.449,11.158c2.882,1.254 2.889,1.198 3.112,1.355c12.906,9.045 13.977,6.926 26.978,15.588c4.62,2.096 5.839,2.092 6.375,2.09c0.869,-0.003 16.765,9.176 17.789,9.558c19.2,7.165 18.856,7.515 20.575,7.891c0.608,0.322 1.415,-0.684 2.023,-0.362c0.944,0.5 1.2,1.839 2.035,2.512c1.172,0.946 1.92,-0.344 6.392,1.581c19.927,8.578 19.982,8.097 40.593,14.984c5.417,2.612 5.339,2.742 5.851,2.821c6.515,1 34.31,9.917 37.269,10.865c20.348,6.527 20.301,6.687 22.149,6.7c2.984,1.498 2.815,1.684 6.229,2.223c9.323,0.869 9.498,2.442 16.404,4.22c48.242,12.42 48.188,14 54.894,12.464c3.857,2.586 3.767,2.862 4.158,2.788c1.278,-0.241 0.762,-1.065 2.111,-1.32c13.541,4.913 14.083,3.779 14.626,4.909c6.772,14.109 -17.472,10.679 -28.946,16.983c-3.397,-0.076 -3.342,0.339 -45.131,11.65c-29.702,8.039 -29.846,7.28 -32.37,8.163c-14.039,5.404 -45.586,13.417 -77.677,26.01c-2.377,0.462 -7.458,1.45 -28.168,11.264c-6.814,0.916 -6.409,1.855 -8.57,3.485c-3.174,1.646 -11.554,4.463 -12.21,4.644c-10.887,2.42 -9.666,5.129 -25.168,11.575c-4.729,0.345 -4.677,0.797 -7.55,4.627c-2.998,1.322 -26.407,11.644 -36.125,19.419c-1.852,0.73 -13.909,5.484 -20.193,14.741c-8.536,0.412 -12.095,4.753 -25.039,18.311c-4.543,1.673 -5.025,0.5 -8.43,3.997c-0.962,0.988 -1.934,1.858 -2.108,2.013c-6.66,5.959 -5.925,6.448 -12.181,12.613c-5.809,5.725 -5.784,5.689 -6.246,6.166c-6.792,3.327 -7.285,5.818 -10.58,10.016c-0.374,1.069 -0.748,2.139 -1.122,3.208c-9.091,8.387 -16.026,13.803 -18.408,22.808c-3.598,5.533 -4.191,4.89 -7.973,10.191c-11.529,10.534 -8.848,13.848 -8.871,14.225c-0.194,0.313 -2.185,3.538 -2.471,3.883c-8.135,9.802 -6.554,10.645 -13.637,21.387c-5.089,6.836 -3.613,7.575 -8.668,14.44c-0.95,1.156 -1.157,0.743 -1.771,2.154c-0.798,1.834 -7.873,18.086 -9.533,23.119c-0.888,1.358 -1.777,2.717 -2.665,4.075c-1.911,10.738 -15.132,31.273 -16.72,41.799c-2.657,6.326 -18.907,51.218 -19.778,58.453c-0.658,1.415 -1.316,2.83 -1.974,4.246c-2.854,8.285 -4.538,7.931 -3.916,16.59c-8.502,11.714 -3.232,13.878 -9.815,29.549c-1.328,3.161 -0.863,3.301 -11.023,41.496c-2.279,8.568 -3.213,20.934 -8.658,37.471c-4.065,12.345 -1.795,12.793 -5.541,25.233c-0.564,-0.268 -1.226,0.803 -1.789,0.535c-1.047,-0.498 -1.438,-1.915 -2.42,-2.536c-0.564,-0.357 -5.966,0.077 -6.483,0.119c-4.623,-14.789 -5.6,-14.458 -6.866,-29.827c-0.077,-0.939 -1.564,-5.429 -1.719,-5.895c-0.72,-3.853 -7.22,-28.757 -7.871,-31.252c-2.247,-8.608 -3.007,-8.233 -5.02,-16.987c-6.739,-29.307 -8.6,-28.634 -11.009,-39.487l-1.796,-2.101c0.913,-13.99 -3.994,-16.165 -5.4,-21.141c-4.508,-15.966 -3.94,-16.002 -10.39,-31.29c-1.077,-2.554 -2.078,-10.119 -3.622,-14.283c-1.435,-3.337 -1.2,-3.25 -2.803,-6.516c-7.42,-15.122 -3.144,-17.053 -12.991,-30.807c-1,-4.594 -0.927,-4.452 -2.755,-8.796c-0.886,-3.772 -0.815,-3.772 -0.957,-4.074c-18.293,-38.835 -17.893,-38.937 -20.168,-41.857c-7.311,-10.276 -5.14,-11.642 -14.692,-22.677c-1.051,-4.832 -0.999,-4.795 -3.956,-8.557c-0.409,-1.118 -1.403,-3.833 -8.313,-12.266c-0.532,-5.765 -1.076,-5.722 -5.91,-8.632c-5.858,-11.457 -8.76,-9.523 -13.84,-21.317c-0.491,-0.497 -4.486,-4.543 -5.856,-6.494c-11.699,-16.672 -42.233,-42.165 -42.516,-42.236c-8.067,-2.039 -6.942,-3.866 -13.147,-9.62c-10.92,-8.682 -15.2,-9.577 -16.714,-9.893c-6.592,-7.005 -6.581,-6.889 -9.8,-9.056c-4.034,-3.216 -3.923,-3.388 -4.357,-3.474c-0.695,-0.137 -1.061,1.358 -1.756,1.221c-7.774,-6.043 -7.632,-9.064 -14.515,-9.76c-1.789,-1.014 -22.094,-12.52 -22.412,-12.577c-8.134,-1.468 -22.858,-12.928 -34.785,-15.994c-43.376,-17.733 -43.051,-18.091 -48.911,-19.523c-5.629,-2.034 -5.62,-1.993 -6.072,-2.25c-11.791,-2.487 -10.827,-5.328 -26.464,-8.617c-2.682,-0.564 -2.051,-2.756 -32.863,-9.78c-0.602,-0.137 -11.182,-4.428 -12.151,-4.821c-11.29,-5.656 -12.632,-0.642 -24.393,-6.271c-1.248,-0.597 -6.728,-1.572 -20.459,-6.307c-10.005,-3.45 -10.626,-0.298 -20.312,-4.407c-0.995,-0.422 -2.759,-3.67 -14.509,-3.599l-2.051,-1.746c-9.423,-2.027 -9.445,-1.178 -18.462,-4.223c1.556,-6.65 1.262,-6.5 1.591,-13.323c2.616,-1.679 6.178,-1.259 6.72,-1.195c3.554,-0.515 3.298,-0.861 6.2,-2.759c8.637,1.838 28.625,-6.355 67.283,-16.237c1.362,-0.747 2.724,-1.494 4.086,-2.242c7.89,0.353 52.331,-15.589 56.802,-17.194l1.995,-0.221c7.48,-0.644 7.491,-0.173 8.582,-1.167c0.909,-0.828 1.053,-2.41 2.089,-3.064c0.57,-0.359 1.373,0.879 1.943,0.519c2.273,-0.665 23.669,-6.929 28.214,-8.984c16.968,-7.672 17.51,-6.341 18.782,-7.349c0.83,-0.657 1.107,-1.953 2.032,-2.46c0.599,-0.329 1.429,0.562 2.028,0.233c0.859,-0.185 7.094,-1.526 10.183,-4.166c1.859,-1.589 1.918,-1.149 4.05,-2.426c12.013,-3.052 11.258,-4.465 22.031,-10.682c2.394,-0.304 2.204,-0.47 8.811,-2.851c4.37,-3.169 4.519,-2.734 12.34,-6.353c1.538,-0.712 1.865,-0.863 18.154,-11.001c1.305,0.046 7.314,0.259 14.351,-7.948c2.052,-0.929 14.496,-6.565 23.467,-15.727c0.296,-1.108 0.593,-2.216 0.889,-3.325c1.643,0.587 0.745,1.575 2.287,2.127c0.125,0.045 0.137,0.049 1.474,-0.781c6.439,-4 7.034,-3.407 10.391,-10.384c12.967,-10.379 13.998,-9.051 23.771,-21.024c0.291,-1.105 0.581,-2.211 0.872,-3.316c1.364,0.507 1.581,3.156 4.457,0.205c4.832,-9.252 7.376,-6.98 13.297,-15.46c4.696,-2.626 4.635,-2.64 7.004,-7.54c19.522,-23.202 25.351,-33.666 28.385,-37.952c3.881,-3.715 4.328,-3.073 6.879,-7.787c2.369,-3.555 1.794,-3.612 2.416,-7.675c0.518,-1.787 1.035,-3.574 1.553,-5.361c0.799,-0.331 0.755,-1.783 1.553,-2.114c0.811,-0.337 1.731,0.519 2.598,0.392c1.232,-0.181 0.699,-0.69 1.111,-4.81c2.532,-1.459 2.677,-1.312 3.699,-4.144c6.093,-10.342 6.796,-13.142 7.109,-14.391c4.291,-7.81 4.025,-9.955 4.117,-10.119c4.172,-7.422 4.876,-6.947 7.403,-15.055c1.445,-2.168 0.813,-2.446 2.651,-3.979c0.454,-0.379 -0.466,-0.892 3.477,-6.595c0.183,-0.264 0.063,-0.292 0.856,-3.946c1.802,-3.641 1.978,-3.514 2.222,-7.538c8.747,-18.951 7.525,-19.322 15.595,-38.438c1.006,-2.025 2.011,-4.051 3.017,-6.076c0.189,-1.531 0.377,-3.061 0.566,-4.592l-0.08,-2.259c1.751,-6.103 17.658,-41.263 16.865,-53.88l2.006,-2.122c2.175,-7.312 1.902,-7.21 4.126,-14.603c0.323,-0.613 -0.679,-1.444 -0.357,-2.057c0.515,-0.979 1.877,-1.21 2.539,-2.092c0.932,-1.24 -0.093,-1.409 6.077,-29.251c2.158,-9.738 3.688,-9.145 5.343,-18.83c2.004,-8.528 1.399,-8.552 4.979,-16.627c3.661,-8.258 0.195,-14.855 9.913,-39.842Z" style="fill:#fff;fill-opacity:0.98;"/></g></svg>