<?xml version="1.0" encoding="UTF-8" standalone="no"?><!DOCTYPE svg PUBLIC "-//W3C//DTD SVG 1.1//EN" "http://www.w3.org/Graphics/SVG/1.1/DTD/svg11.dtd"><svg width="100%" height="100%" viewBox="0 0 3334 3334" version="1.1" xmlns="http://www.w3.org/2000/svg" xmlns:xlink="http://www.w3.org/1999/xlink" xml:space="preserve" xmlns:serif="http://www.serif.com/" style="fill-rule:evenodd;clip-rule:evenodd;stroke-linejoin:round;stroke-miterlimit:2;"><g><g><path d="M3148.223,1346.152l-2949.844,0c-105.729,0 -198.379,81.868 -198.379,187.852l0,256.66c0,105.983 92.65,196.517 198.379,196.517l2949.844,0c105.736,0 185.111,-90.534 185.111,-196.517l0,-256.66c0,-105.983 -79.375,-187.852 -185.111,-187.852Zm56.908,444.512c0,35.273 -21.849,68.314 -56.901,68.314l-2949.85,0c-35.618,0 -70.176,-32.441 -70.176,-68.314l0,-256.66c0,-35.267 35.117,-59.642 70.176,-59.642l2949.844,0c35.618,0 56.901,23.77 56.901,59.642l0,256.66l0.007,0Z" style="fill:#fff;fill-rule:nonzero;"/></g></g></svg>