<?xml version="1.0" encoding="UTF-8" standalone="no"?><!DOCTYPE svg PUBLIC "-//W3C//DTD SVG 1.1//EN" "http://www.w3.org/Graphics/SVG/1.1/DTD/svg11.dtd"><svg width="100%" height="100%" viewBox="0 0 3334 3334" version="1.1" xmlns="http://www.w3.org/2000/svg" xmlns:xlink="http://www.w3.org/1999/xlink" xml:space="preserve" xmlns:serif="http://www.serif.com/" style="fill-rule:evenodd;clip-rule:evenodd;stroke-linejoin:round;stroke-miterlimit:2;"><ellipse cx="1666.667" cy="1651.57" rx="1646.538" ry="1651.57"/><path d="M1666.667,0c-919,0 -1666.667,747.667 -1666.667,1666.667c0,919 747.667,1666.667 1666.667,1666.667c919,0 1666.667,-747.667 1666.667,-1666.667c0,-919 -747.667,-1666.667 -1666.667,-1666.667Zm0,3222.222c-857.722,0 -1555.556,-697.833 -1555.556,-1555.556c0,-857.722 697.833,-1555.556 1555.556,-1555.556c857.722,0 1555.556,697.833 1555.556,1555.556c0,857.722 -697.833,1555.556 -1555.556,1555.556Z" style="fill:#fff;fill-rule:nonzero;"/><g><path d="M1913.167,411.833c-54.389,-31.167 -119.056,-30.722 -173.056,1.056c-3.5,2.056 -6.722,4.5 -9.667,7.278l-735.667,684.889c-8.333,4 -17.389,6.056 -26.611,6.056l-462.389,0c-95.111,0 -172.444,77.389 -172.444,172.444l0,710.722c0,95 77.333,172.389 172.444,172.389l462.444,0c9.222,0 18.278,2.056 26.611,6.056l735.667,684.889c2.944,2.778 6.222,5.222 9.667,7.278c27.333,16.056 57.389,24.111 87.444,24.111c29.389,0 58.778,-7.667 85.611,-23.056c54.333,-31.111 86.778,-87 86.778,-149.611l0,-2154.889c0,-62.611 -32.444,-118.5 -86.833,-149.611Zm-24.278,2304.5c0,32.056 -21.611,47.889 -30.889,53.222c-8.778,5 -31.222,14.556 -56.944,2.056l-735.778,-685c-3,-2.833 -6.278,-5.278 -9.778,-7.278c-26.5,-15.611 -56.667,-23.778 -87.333,-23.778l-462.389,0c-33.833,0 -61.333,-27.5 -61.333,-61.333l0,-710.667c0,-33.833 27.5,-61.333 61.333,-61.333l462.444,0c30.611,0 60.833,-8.167 87.333,-23.778c3.5,-2 6.778,-4.444 9.778,-7.278l735.778,-685c25.833,-12.556 48.222,-2.944 56.944,2.056c9.222,5.333 30.833,21.167 30.833,53.222l0,2154.889Z" style="fill:#fff;fill-rule:nonzero;"/><path d="M2205.944,1127.389c-21.722,-21.722 -56.833,-21.722 -78.556,0c-21.722,21.722 -21.722,56.833 0,78.556c238.722,238.722 238.722,627.167 0,865.889c-21.722,21.722 -21.722,56.833 0,78.556c10.833,10.833 25.056,16.278 39.278,16.278c14.222,0 28.444,-5.444 39.278,-16.278c282.056,-282.056 282.056,-740.944 0,-1023Z" style="fill:#fff;fill-rule:nonzero;"/></g><g id="Ebene1"></g></svg>