<?xml version="1.0" encoding="UTF-8" standalone="no"?><!DOCTYPE svg PUBLIC "-//W3C//DTD SVG 1.1//EN" "http://www.w3.org/Graphics/SVG/1.1/DTD/svg11.dtd"><svg width="100%" height="100%" viewBox="0 0 10000 1250" version="1.1" xmlns="http://www.w3.org/2000/svg" xmlns:xlink="http://www.w3.org/1999/xlink" xml:space="preserve" xmlns:serif="http://www.serif.com/" style="fill-rule:evenodd;clip-rule:evenodd;stroke-linecap:square;"><path d="M277.777,329.863l694.446,0" style="fill:none;fill-rule:nonzero;stroke:#000;stroke-width:69.46px;"/><path d="M277.777,625l694.446,0" style="fill:none;fill-rule:nonzero;stroke:#000;stroke-width:69.46px;"/><path d="M277.777,920.138l694.446,0" style="fill:none;fill-rule:nonzero;stroke:#000;stroke-width:69.46px;"/><path d="M1701.39,329.863l347.221,0" style="fill:none;fill-rule:nonzero;stroke:#000;stroke-width:69.46px;"/><path d="M1527.777,625l694.446,0" style="fill:none;fill-rule:nonzero;stroke:#000;stroke-width:69.46px;"/><path d="M1701.39,920.138l347.221,0" style="fill:none;fill-rule:nonzero;stroke:#000;stroke-width:69.46px;"/><path d="M3125.002,329.863l347.221,0" style="fill:none;fill-rule:nonzero;stroke:#000;stroke-width:69.46px;"/><path d="M2777.777,625l694.446,0" style="fill:none;fill-rule:nonzero;stroke:#000;stroke-width:69.46px;"/><path d="M2777.777,920.138l347.221,0" style="fill:none;fill-rule:nonzero;stroke:#000;stroke-width:69.46px;"/><path d="M4563.175,443.938l265.992,-223.188" style="fill:none;fill-rule:nonzero;stroke:#000;stroke-width:69.46px;"/><path d="M4083,404.283l531.963,446.379" style="fill:none;fill-rule:nonzero;stroke:#000;stroke-width:69.46px;"/><path d="M3920.833,1034.229l265.988,-223.192" style="fill:none;fill-rule:nonzero;stroke:#000;stroke-width:69.46px;"/><path d="M5624.965,624.985l265.992,-223.192" style="fill:none;fill-rule:nonzero;stroke:#000;stroke-width:69.46px;"/><path d="M5358.99,404.277l531.963,446.379" style="fill:none;fill-rule:nonzero;stroke:#000;stroke-width:69.46px;"/><path d="M5364.548,850.681l265.992,-223.192" style="fill:none;fill-rule:nonzero;stroke:#000;stroke-width:69.46px;"/><path d="M7063.15,441.448l265.988,-223.188" style="fill:none;fill-rule:nonzero;stroke:#000;stroke-width:69.46px;"/><path d="M6582.975,401.794l531.962,446.379" style="fill:none;fill-rule:nonzero;stroke:#000;stroke-width:69.46px;"/><path d="M6420.808,1031.74l265.992,-223.192" style="fill:none;fill-rule:nonzero;stroke:#000;stroke-width:69.46px;"/><path d="M8124.975,329.863l347.221,0" style="fill:none;fill-rule:nonzero;stroke:#000;stroke-width:69.46px;"/><path d="M7777.75,625l694.446,0" style="fill:none;fill-rule:nonzero;stroke:#000;stroke-width:69.46px;"/><path d="M7777.75,920.138l347.221,0" style="fill:none;fill-rule:nonzero;stroke:#000;stroke-width:69.46px;"/><path d="M9201.363,329.863l347.221,0" style="fill:none;fill-rule:nonzero;stroke:#000;stroke-width:69.46px;"/><path d="M9027.75,625l694.446,0" style="fill:none;fill-rule:nonzero;stroke:#000;stroke-width:69.46px;"/><path d="M9201.363,920.138l347.221,0" style="fill:none;fill-rule:nonzero;stroke:#000;stroke-width:69.46px;"/></svg>