<svg width="196" height="64" viewBox="0 0 196 64" fill="none" xmlns="http://www.w3.org/2000/svg">
<rect x="0.5" y="0.5" width="195" height="63" rx="4.5" fill="black"/>
<rect x="0.5" y="0.5" width="195" height="63" rx="4.5" stroke="#9747FF" stroke-dasharray="10 5"/>
<mask id="mask0_41976_3965" style="mask-type:alpha" maskUnits="userSpaceOnUse" x="20" y="20" width="24" height="24">
<rect x="20" y="20" width="24" height="24" fill="#797EF3"/>
</mask>
<g mask="url(#mask0_41976_3965)">
<path d="M25 41C24.45 41 23.9792 40.8042 23.5875 40.4125C23.1958 40.0208 23 39.55 23 39V25C23 24.45 23.1958 23.9792 23.5875 23.5875C23.9792 23.1958 24.45 23 25 23H39C39.55 23 40.0208 23.1958 40.4125 23.5875C40.8042 23.9792 41 24.45 41 25V39C41 39.55 40.8042 40.0208 40.4125 40.4125C40.0208 40.8042 39.55 41 39 41H25ZM25 39H39V25H25V39Z" fill="#FFFCF3"/>
</g>
<rect x="64" y="20" width="24" height="24" rx="12" fill="#00BC8F"/>
<mask id="mask1_41976_3965" style="mask-type:alpha" maskUnits="userSpaceOnUse" x="64" y="20" width="24" height="24">
<rect x="64" y="20" width="24" height="24" fill="#797EF3"/>
</mask>
<g mask="url(#mask1_41976_3965)">
<path d="M69 41C68.45 41 67.9792 40.8042 67.5875 40.4125C67.1958 40.0208 67 39.55 67 39V25C67 24.45 67.1958 23.9792 67.5875 23.5875C67.9792 23.1958 68.45 23 69 23H83C83.55 23 84.0208 23.1958 84.4125 23.5875C84.8042 23.9792 85 24.45 85 25V39C85 39.55 84.8042 40.0208 84.4125 40.4125C84.0208 40.8042 83.55 41 83 41H69ZM69 39H83V25H69V39Z" fill="#FFFCF3"/>
</g>
<mask id="mask2_41976_3965" style="mask-type:alpha" maskUnits="userSpaceOnUse" x="108" y="20" width="24" height="24">
<rect x="108" y="20" width="24" height="24" fill="#797EF3"/>
</mask>
<g mask="url(#mask2_41976_3965)">
<path d="M118.6 33.4L116.45 31.25C116.267 31.0667 116.033 30.975 115.75 30.975C115.467 30.975 115.233 31.0667 115.05 31.25C114.867 31.4333 114.775 31.6667 114.775 31.95C114.775 32.2333 114.867 32.4667 115.05 32.65L117.9 35.5C118.1 35.7 118.333 35.8 118.6 35.8C118.867 35.8 119.1 35.7 119.3 35.5L124.95 29.85C125.133 29.6667 125.225 29.4333 125.225 29.15C125.225 28.8667 125.133 28.6333 124.95 28.45C124.767 28.2667 124.533 28.175 124.25 28.175C123.967 28.175 123.733 28.2667 123.55 28.45L118.6 33.4ZM113 41C112.45 41 111.979 40.8042 111.588 40.4125C111.196 40.0208 111 39.55 111 39V25C111 24.45 111.196 23.9792 111.588 23.5875C111.979 23.1958 112.45 23 113 23H127C127.55 23 128.021 23.1958 128.413 23.5875C128.804 23.9792 129 24.45 129 25V39C129 39.55 128.804 40.0208 128.413 40.4125C128.021 40.8042 127.55 41 127 41H113ZM113 39H127V25H113V39Z" fill="#FFFCF3"/>
</g>
<rect x="152" y="20" width="24" height="24" rx="12" fill="#00BC8F"/>
<mask id="mask3_41976_3965" style="mask-type:alpha" maskUnits="userSpaceOnUse" x="152" y="20" width="24" height="24">
<rect x="152" y="20" width="24" height="24" fill="#797EF3"/>
</mask>
<g mask="url(#mask3_41976_3965)">
<path d="M162.6 33.4L160.45 31.25C160.267 31.0667 160.033 30.975 159.75 30.975C159.467 30.975 159.233 31.0667 159.05 31.25C158.867 31.4333 158.775 31.6667 158.775 31.95C158.775 32.2333 158.867 32.4667 159.05 32.65L161.9 35.5C162.1 35.7 162.333 35.8 162.6 35.8C162.867 35.8 163.1 35.7 163.3 35.5L168.95 29.85C169.133 29.6667 169.225 29.4333 169.225 29.15C169.225 28.8667 169.133 28.6333 168.95 28.45C168.767 28.2667 168.533 28.175 168.25 28.175C167.967 28.175 167.733 28.2667 167.55 28.45L162.6 33.4ZM157 41C156.45 41 155.979 40.8042 155.588 40.4125C155.196 40.0208 155 39.55 155 39V25C155 24.45 155.196 23.9792 155.588 23.5875C155.979 23.1958 156.45 23 157 23H171C171.55 23 172.021 23.1958 172.413 23.5875C172.804 23.9792 173 24.45 173 25V39C173 39.55 172.804 40.0208 172.413 40.4125C172.021 40.8042 171.55 41 171 41H157ZM157 39H171V25H157V39Z" fill="#FFFCF3"/>
</g>
</svg>
