<?xml version="1.0" encoding="UTF-8" standalone="no"?><!DOCTYPE svg PUBLIC "-//W3C//DTD SVG 1.1//EN" "http://www.w3.org/Graphics/SVG/1.1/DTD/svg11.dtd"><svg width="100%" height="100%" viewBox="0 0 3334 3334" version="1.1" xmlns="http://www.w3.org/2000/svg" xmlns:xlink="http://www.w3.org/1999/xlink" xml:space="preserve" xmlns:serif="http://www.serif.com/" style="fill-rule:evenodd;clip-rule:evenodd;stroke-linejoin:round;stroke-miterlimit:2;"><g><g><g><path d="M3322.578,218.71c-9.978,-9.067 -24.432,-10.888 -36.496,-4.856l-2406.498,1223.678c-10.357,5.273 -17.148,15.706 -17.717,27.315c-0.607,11.609 5.046,22.649 14.834,28.984l609.62,393.375l75.382,554.421c1.404,10.395 7.777,19.5 17.034,24.356c4.78,2.542 9.94,3.756 15.175,3.756c4.97,0 9.978,-1.176 14.606,-3.49l489.32,-245.874l372.586,181.532c8.27,4.059 17.717,4.439 26.177,1.024c8.46,-3.339 15.175,-10.091 18.4,-18.589c0,0 820.288,-2112.974 814.104,-2124.47l2.087,-5.387c4.78,-12.519 1.404,-26.746 -8.612,-35.775Zm-2363.135,1251.183l2213.054,-1125.306l-1675.44,1472.17l-537.614,-346.864Zm1832.388,-704.236l194.051,-170.492l-191.357,224.894c-2.694,-16.275 -3.376,-32.816 -2.087,-49.66c0.114,-1.821 -0.417,-3.187 -0.607,-4.742Zm-33.309,96.703l-132.061,155.203c-3.49,-28.908 -6.981,-57.817 -10.471,-86.725c-0.379,-3.187 -1.442,-5.842 -2.732,-8.308l133.54,-117.303c1.48,19.462 5.501,38.469 11.723,57.134Zm-172.275,202.435l-105.542,124.094c-5.16,-43.894 -10.281,-87.788 -15.441,-131.719c-0.152,-1.366 -0.835,-2.352 -1.176,-3.566l109.26,-96.02c4.287,35.737 8.612,71.475 12.899,107.212Zm-145.87,171.44l-117.72,138.434c-6.677,-54.137 -13.316,-108.236 -19.993,-162.373c-0.607,-5.008 -2.769,-8.802 -5.425,-12.102l125.953,-110.664c5.729,48.902 11.457,97.841 17.186,146.705Zm-157.821,185.553l-116.355,136.727c-7.36,-73.447 -14.682,-146.857 -22.042,-220.304c-0.114,-1.062 -0.607,-1.821 -0.835,-2.769l116.051,-101.938c7.739,62.749 15.441,125.536 23.18,188.284Zm-157.403,184.946l-84.335,99.169c-12.671,-82.363 -25.304,-164.687 -37.976,-247.012l98.828,-86.877c7.853,78.265 15.63,156.493 23.483,234.72Zm-123.373,145.036l-104.215,122.463c-9.522,-99.207 -19.083,-198.452 -28.605,-297.697l93.289,-81.983c13.164,85.739 26.367,171.478 39.531,257.217Zm-145.415,170.947l-57.855,67.984c-0.721,0.835 -1.214,1.897 -1.859,2.807c-0.266,0.379 -0.683,0.569 -0.911,0.948c-0.19,0.341 -0.19,0.683 -0.379,1.024c-0.379,0.607 -0.911,1.176 -1.214,1.821l-43.097,86.915c-10.281,-126.181 -19.386,-252.437 -26.632,-378.845c-0.038,-0.569 -0.341,-0.948 -0.379,-1.48l102.621,-90.178c9.902,103.001 19.803,206.001 29.705,309.002Zm-307.636,-59.107c-0.19,-1.555 -1.176,-2.845 -1.555,-4.325l133.73,-117.531c8.422,140.9 18.476,281.649 30.616,422.284l-95.679,193.027l-67.112,-493.455Zm142.039,488.561l145.681,-293.789l195.037,122.576l-340.718,171.213Zm776.242,-24.204l-353.655,-172.313l-240.942,-151.447l1307.672,-1536.929l-713.076,1860.689Z" style="fill:#fff;fill-rule:nonzero;"/><path d="M37.065,2127.618c1.593,0.228 3.187,0.379 4.78,0.379c15.858,0 29.743,-11.647 32.133,-27.808c3.035,-20.676 6.829,-41.124 11.381,-61.421c3.908,-17.527 -7.132,-34.903 -24.659,-38.81c-17.565,-3.983 -34.903,7.132 -38.81,24.659c-4.894,21.814 -8.991,43.856 -12.254,66.087c-2.618,17.793 9.674,34.334 27.429,36.913Z" style="fill:#fff;fill-rule:nonzero;"/><path d="M45.184,2373.189c17.793,-2.504 30.16,-18.969 27.694,-36.686c-5.197,-37.217 -7.853,-75.534 -7.853,-113.813l0.038,-10.509c0.228,-17.982 -14.151,-32.702 -32.095,-32.93l-0.379,0c-17.793,0 -32.285,14.302 -32.513,32.133l-0.076,11.305c0,41.238 2.845,82.552 8.498,122.766c2.238,16.275 16.199,28.036 32.133,28.036c1.518,0 3.035,-0.114 4.553,-0.304Z" style="fill:#fff;fill-rule:nonzero;"/><path d="M1474.446,2730.903c-16.844,-6.336 -35.586,2.011 -41.959,18.779c-15.327,40.062 -33.499,77.355 -54.099,110.816c-9.409,15.251 -4.628,35.282 10.66,44.728c5.311,3.263 11.192,4.856 16.996,4.856c10.926,0 21.587,-5.501 27.694,-15.479c22.725,-36.913 42.718,-77.848 59.486,-121.666c6.411,-16.844 -1.973,-35.623 -18.779,-42.035Z" style="fill:#fff;fill-rule:nonzero;"/><path d="M140.9,2561.17c-17.907,-36.344 -32.93,-75.117 -44.691,-115.33c-4.97,-17.262 -23.028,-26.936 -40.29,-22.156c-17.224,5.046 -27.163,23.066 -22.08,40.328c12.747,43.818 29.174,86.156 48.788,125.915c5.653,11.457 17.186,18.134 29.174,18.134c4.856,0 9.75,-1.1 14.34,-3.376c16.086,-7.967 22.687,-27.429 14.758,-43.514Z" style="fill:#fff;fill-rule:nonzero;"/><path d="M744.754,2867.554c-2.276,-5.235 -4.477,-10.509 -6.487,-15.896c11.95,-9.598 15.782,-26.594 8.308,-40.631c-5.197,-9.712 -14.53,-15.668 -24.622,-16.958c-2.656,-13.544 -4.59,-27.277 -5.767,-41.314c-1.48,-17.907 -17.565,-31.754 -35.092,-29.705c-17.907,1.48 -31.185,17.186 -29.705,35.054c1.669,20.031 4.628,39.721 8.877,58.879c-22.687,8.764 -46.056,15.251 -69.805,19.31c-17.717,2.997 -29.591,19.803 -26.594,37.482c3.073,17.755 19.993,29.629 37.558,26.594c26.518,-4.553 52.468,-11.571 77.81,-21.017c1.897,4.78 3.832,9.522 5.918,14.227c5.349,12.178 17.262,19.5 29.819,19.5c4.363,0 8.764,-0.873 12.975,-2.732c16.465,-7.17 23.977,-26.329 16.806,-42.794Z" style="fill:#fff;fill-rule:nonzero;"/><path d="M483.932,2838.608c-39.038,-4.932 -77.317,-16.275 -113.775,-33.613c-16.161,-7.701 -35.623,-0.835 -43.325,15.365c-7.701,16.199 -0.835,35.623 15.403,43.325c42.718,20.335 87.674,33.613 133.578,39.417c1.404,0.19 2.769,0.266 4.135,0.266c16.123,0 30.122,-12.026 32.209,-28.453c2.2,-17.755 -10.433,-34.068 -28.226,-36.306Z" style="fill:#fff;fill-rule:nonzero;"/><path d="M1311.77,2947.071c-28.946,29.819 -60.776,53.985 -94.541,71.778c-15.858,8.384 -21.928,28.036 -13.544,43.97c5.804,11.002 17.072,17.337 28.757,17.337c5.122,0 10.319,-1.214 15.175,-3.756c39.797,-21.017 77.089,-49.281 110.816,-83.956c12.519,-12.937 12.216,-33.461 -0.645,-45.98c-12.899,-12.444 -33.499,-12.254 -46.018,0.607Z" style="fill:#fff;fill-rule:nonzero;"/><path d="M230.357,2696.797c-11.381,-13.164 -22.118,-26.708 -32.247,-40.631c-10.547,-14.53 -30.881,-17.755 -45.411,-7.17c-14.53,10.585 -17.717,30.919 -7.132,45.449c11.192,15.365 23.028,30.312 35.586,44.842c17.641,20.448 36.648,39.379 56.565,56.337c6.108,5.235 13.582,7.777 21.055,7.777c9.219,0 18.324,-3.908 24.773,-11.419c11.647,-13.658 9.978,-34.182 -3.68,-45.829c-17.375,-14.872 -34.03,-31.488 -49.509,-49.357Z" style="fill:#fff;fill-rule:nonzero;"/><path d="M910.503,2630.254c-15.251,-9.409 -35.32,-4.666 -44.728,10.66c-5.918,9.522 -11.343,17.755 -15.934,24.204c-18.172,25.646 -38.393,48.977 -60.131,69.502c-13.088,12.33 -13.658,32.892 -1.328,45.98c6.374,6.791 14.985,10.243 23.635,10.243c8.005,0 16.048,-2.959 22.307,-8.877c24.811,-23.445 47.915,-50.116 68.591,-79.176c5.273,-7.436 11.495,-16.806 18.248,-27.808c9.409,-15.289 4.628,-35.32 -10.66,-44.728Z" style="fill:#fff;fill-rule:nonzero;"/><path d="M976.704,2566.405c19.083,-47.194 28.757,-88.85 28.757,-123.828c0,-5.956 -0.266,-11.799 -0.835,-17.527c-1.821,-17.869 -17.717,-30.426 -35.623,-29.098c-17.831,1.821 -30.881,17.755 -29.06,35.623c0.379,3.566 0.531,7.246 0.531,11.002c0,26.215 -8.308,60.624 -24.015,99.472c-6.753,16.617 1.29,35.548 17.945,42.338c3.983,1.593 8.081,2.39 12.178,2.39c12.823,-0.038 25.001,-7.739 30.122,-20.373Z" style="fill:#fff;fill-rule:nonzero;"/><path d="M895.935,3024.236c-35.775,-16.768 -67.377,-39.835 -93.858,-68.515c-12.216,-13.164 -32.816,-13.961 -45.942,-1.821c-13.202,12.178 -13.999,32.778 -1.821,45.98c32.209,34.865 70.602,62.901 114.041,83.197c4.439,2.125 9.143,3.111 13.771,3.111c12.216,0 23.939,-6.943 29.478,-18.703c7.588,-16.275 0.607,-35.623 -15.668,-43.249Z" style="fill:#fff;fill-rule:nonzero;"/><path d="M683.94,2671.379c1.973,0.379 3.983,0.531 5.956,0.531c15.365,0 29.022,-11.002 31.906,-26.594c3.414,-18.514 8.157,-37.027 13.999,-55.01c5.349,-16.541 14.302,-38.165 24.546,-59.334c7.853,-16.161 1.1,-35.623 -15.099,-43.439c-16.237,-8.005 -35.586,-1.062 -43.401,15.099c-11.457,23.711 -21.624,48.333 -27.884,67.529c-6.715,20.638 -12.14,41.959 -16.086,63.28c-3.263,17.679 8.384,34.675 26.063,37.938Z" style="fill:#fff;fill-rule:nonzero;"/><path d="M771.614,2442.918c5.994,4.78 13.164,7.094 20.297,7.094c9.522,0 19.007,-4.211 25.38,-12.216c27.657,-34.561 54.896,-53.568 76.71,-53.568l4.097,-32.399l-2.125,32.475c17.413,1.024 33.385,-12.444 34.561,-30.35c1.176,-17.869 -12.406,-33.385 -30.312,-34.561c-0.721,-0.038 -5.501,-0.19 -6.222,-0.19c-43.173,0 -86.043,26.253 -127.47,78c-11.23,14.037 -8.953,34.485 5.084,45.715Z" style="fill:#fff;fill-rule:nonzero;"/><path d="M1117.112,3052.917c-37.444,6.336 -78,6.677 -118.934,0.835c-17.755,-2.238 -34.258,9.864 -36.724,27.657c-2.504,17.793 9.864,34.258 27.619,36.8c22.535,3.187 45.108,4.78 67.112,4.78c24.47,0 48.636,-2.011 71.816,-5.994c17.717,-2.997 29.629,-19.803 26.594,-37.482c-2.997,-17.717 -19.879,-29.591 -37.482,-26.594Z" style="fill:#fff;fill-rule:nonzero;"/><path d="M1513.712,2551.078c-17.565,-2.428 -34.296,9.636 -36.951,27.429c-3.035,20.486 -6.867,41.086 -11.457,61.535c-3.946,17.527 7.094,34.903 24.584,38.848c2.39,0.531 4.78,0.797 7.132,0.797c14.872,0 28.301,-10.281 31.716,-25.38c4.932,-22.004 9.067,-44.197 12.33,-66.315c2.656,-17.755 -9.56,-34.258 -27.353,-36.913Z" style="fill:#fff;fill-rule:nonzero;"/><path d="M2465.225,2109.257c24.584,-58.955 49.205,-117.948 73.789,-176.941c11.381,-27.239 -33.006,-39.076 -44.235,-12.178c-24.584,58.955 -49.205,117.948 -73.789,176.941c-11.343,27.201 33.044,39.076 44.235,12.178Z" style="fill:#fff;fill-rule:nonzero;"/><path d="M2588.257,1814.367c49.205,-117.948 98.41,-235.896 147.615,-353.844c11.381,-27.239 -33.006,-39.076 -44.235,-12.178c-49.205,117.948 -98.41,235.896 -147.615,353.844c-11.343,27.201 33.006,39.076 44.235,12.178Z" style="fill:#fff;fill-rule:nonzero;"/></g></g><path d="M1531.746,1848.685l80.907,560.045l177.225,-402.893l1462.106,-1686.393" style="fill:#519f76;"/></g></svg>