<?xml version="1.0" encoding="UTF-8" standalone="no"?><!DOCTYPE svg PUBLIC "-//W3C//DTD SVG 1.1//EN" "http://www.w3.org/Graphics/SVG/1.1/DTD/svg11.dtd"><svg width="100%" height="100%" viewBox="0 0 10227 10227" version="1.1" xmlns="http://www.w3.org/2000/svg" xmlns:xlink="http://www.w3.org/1999/xlink" xml:space="preserve" xmlns:serif="http://www.serif.com/" style="fill-rule:evenodd;clip-rule:evenodd;stroke-linejoin:round;stroke-miterlimit:2;"><g><path d="M4410.11,8545.723l4153.223,-4153.223c380.417,-380.417 997.5,-380.417 1377.917,0c380.417,380.833 380.417,997.5 -0.417,1378.333l-4157.012,4157.012c367.237,-381.303 362.886,-989.018 -13.052,-1364.956c-374.529,-374.529 -979.101,-380.251 -1360.659,-17.166Z" style="fill:#808080;fill-rule:nonzero;stroke:#000;stroke-width:1.25px;"/><path d="M4392.513,8562.889c380.34,-380.34 997.916,-380.34 1378.256,0c380.34,380.34 380.34,997.916 0,1378.256c-380.34,380.34 -997.916,380.34 -1378.256,-0c-380.34,-380.34 -380.34,-997.916 0,-1378.256Z" style="fill:none;stroke:#8a8a8a;stroke-width:40.42px;"/><path d="M4412.335,320.111c380.34,-380.34 997.916,-380.34 1378.256,-0c380.34,380.34 380.34,997.916 0,1378.256c-380.34,380.34 -997.916,380.34 -1378.256,-0c-380.34,-380.34 -380.34,-997.916 0,-1378.256Z" style="fill:none;stroke:#000;stroke-width:40.42px;"/><path d="M5783.822,9927.845c-4.3,4.465 -8.651,8.898 -13.052,13.3c-380.34,380.34 -997.916,380.34 -1378.256,0c-380.34,-380.34 -380.34,-997.916 -0,-1378.256c5.811,-5.811 11.677,-11.533 17.597,-17.166l-17.193,17.193c-380.417,380.417 -380.833,997.5 0,1377.917c380.417,380.417 997.5,380.417 1377.917,0l12.988,-12.988Z" style="fill:#34a853;"/><path d="M4438.901,4409.435l2070.682,-2070.269c380.417,-380.833 997.083,-380.833 1377.917,0c380.417,380.417 380.417,997.5 0,1377.917l-2061.527,2061.115c361.214,-381.665 354.875,-984.817 -19.017,-1358.709c-376.959,-376.959 -986.953,-380.31 -1368.055,-10.054Z" style="fill:#808080;"/><path d="M4409.168,4439.582c-360.692,381.694 -354.181,984.45 19.532,1358.164c377.297,377.297 988.05,380.316 1369.082,9.055l-2080.7,2080.7c-380.417,380.417 -997.5,380.417 -1377.917,-0c-380.417,-380.417 -380.417,-997.5 0,-1377.917l2070.002,-2070.002Z" style="fill-rule:nonzero;"/><path d="M5825.973,5778.198c-6.23,6.582 -12.569,13.099 -19.017,19.547c-3.043,3.043 -6.101,6.061 -9.174,9.055l4.3,-4.3l-1377.917,-1377.917l-14.998,14.998c6.395,-6.768 12.906,-13.466 19.532,-20.092c3.381,-3.381 6.782,-6.733 10.2,-10.054l-14.734,14.731l1377.917,1377.917l23.89,-23.885Z" style="fill:#34a853;"/><path d="M5825.994,1671.089l-4162.661,4162.661c-380.417,380.417 -997.5,380.417 -1377.917,0c-380.417,-380.417 -380.417,-997.5 -0,-1377.917l4162.661,-4162.661c-171.995,175.776 -278.077,416.303 -278.077,681.411c0,537.887 436.696,974.583 974.583,974.583c265.108,0 505.635,-106.082 681.411,-278.077Zm-1302.928,-1446.985c57.62,-47.856 119.467,-88.044 184.186,-120.563c-66.038,33.251 -127.787,73.792 -184.186,120.563Zm932.049,-173.505c138.399,46.356 268.445,124.628 378.634,234.818c110.189,110.189 188.462,240.235 234.818,378.634c-96.969,-288.278 -325.174,-516.483 -613.452,-613.452Zm560.51,1361.316c-32.52,64.719 -72.708,126.566 -120.563,184.186c46.772,-56.399 87.313,-118.147 120.563,-184.186Z" style="fill-rule:nonzero;"/><path d="M4448.077,293.173c23.772,-24.295 48.804,-47.353 74.989,-69.068c-23.121,19.203 -45.561,39.64 -67.233,61.312l-7.756,7.756Zm259.175,-189.632c131.548,-66.235 280.117,-103.541 437.331,-103.541c108.551,0 212.981,17.786 310.532,50.599c-244.351,-81.844 -514.742,-64.196 -747.864,52.942Zm1361.316,560.51c32.813,97.551 50.599,201.981 50.599,310.532c0,157.214 -37.306,305.784 -103.541,437.331c117.138,-233.122 134.786,-503.512 52.942,-747.864Zm-173.505,932.049c-21.715,26.185 -44.773,51.216 -69.068,74.989l7.756,-7.756c21.672,-21.672 42.109,-44.112 61.312,-67.233Z" style="fill:#34a853;"/></g></svg>