<?xml version="1.0" encoding="UTF-8" standalone="no"?><!DOCTYPE svg PUBLIC "-//W3C//DTD SVG 1.1//EN" "http://www.w3.org/Graphics/SVG/1.1/DTD/svg11.dtd"><svg width="100%" height="100%" viewBox="0 0 1113 499" version="1.1" xmlns="http://www.w3.org/2000/svg" xmlns:xlink="http://www.w3.org/1999/xlink" xml:space="preserve" xmlns:serif="http://www.serif.com/" style="fill-rule:evenodd;clip-rule:evenodd;stroke-linejoin:round;stroke-miterlimit:2;"><g><path d="M0,0l125.481,0l0,77.488l-63.995,0l0,343.159l63.995,0l0,77.488l-125.481,0l0,-498.134Z" style="fill-rule:nonzero;"/><path d="M978.378,420.646l68.402,0l0,-343.159l-68.402,0l0,-77.488l134.122,0l0,498.134l-134.122,0l0,-77.488Z" style="fill-rule:nonzero;"/><path d="M134.167,77.409l-68.402,0.041l0.203,343.159l68.402,-0.041l0.046,77.488l-134.122,0.079l-0.295,-498.134l134.122,-0.079l0.046,77.488Z" style="fill-rule:nonzero;"/><g transform="matrix(1,0,0,0.974837,-0,2.138127)"><g transform="matrix(509.05814,0,0,509.05814,584.410932,411.430137)"></g><text x="302.54px" y="411.43px" style="font-family:'Impact', sans-serif;font-stretch:condensed;font-size:509.058px;">C</text></g><g transform="matrix(1,0,0,0.974837,-0,0.90103)"><g transform="matrix(509.05814,0,0,509.05814,773.369351,507.320331)"></g><text x="538.725px" y="507.32px" style="font-family:'Impact', sans-serif;font-stretch:condensed;font-size:509.058px;">T</text></g><rect x="463.287" y="103.157" width="328.777" height="78.785"/></g></svg>